HIERARCHY
ROOT Hips
{
	OFFSET 0.000000 100.481300 0.000000
	CHANNELS 6 Xposition Yposition Zposition Xrotation Yrotation Zrotation
	JOINT Spine
	{
		OFFSET -0.279200 12.230698 -2.892100
		CHANNELS 3 Xrotation Yrotation Zrotation
		JOINT Spine1
		{
			OFFSET -0.325700 14.269203 -3.374200
			CHANNELS 3 Xrotation Yrotation Zrotation
			JOINT Spine2
			{
				OFFSET -0.372300 16.307602 -0.352600
				CHANNELS 3 Xrotation Yrotation Zrotation
				JOINT Neck
				{
					OFFSET -0.418800 17.814194 8.416900
					CHANNELS 3 Xrotation Yrotation Zrotation
					JOINT Head
					{
						OFFSET 0.000000 7.031097 3.806800
						CHANNELS 3 Xrotation Yrotation Zrotation
						JOINT HeadTop_End
						{
							OFFSET 0.000000 24.646606 12.978600
							CHANNELS 3 Xrotation Yrotation Zrotation
							End Site
							{
								OFFSET 0.000000 27.854965 0.000000
							}
						}
					}
				}
				JOINT LeftShoulder
				{
					OFFSET 16.952999 14.495407 -7.737500
					CHANNELS 3 Xrotation Yrotation Zrotation
					JOINT LeftArm
					{
						OFFSET 9.308998 -2.777710 0.208600
						CHANNELS 3 Xrotation Yrotation Zrotation
						JOINT LeftForeArm
						{
							OFFSET 29.972298 0.000000 0.000000
							CHANNELS 3 Xrotation Yrotation Zrotation
							JOINT LeftHand
							{
								OFFSET 26.026505 0.000000 0.000000
								CHANNELS 3 Xrotation Yrotation Zrotation
								JOINT LeftHandThumb1
								{
									OFFSET 12.240501 -7.147949 9.207150
									CHANNELS 3 Xrotation Yrotation Zrotation
									JOINT LeftHandThumb2
									{
										OFFSET 4.138618 -2.389435 2.389433
										CHANNELS 3 Xrotation Yrotation Zrotation
										JOINT LeftHandThumb3
										{
											OFFSET 2.726913 -1.574387 1.574386
											CHANNELS 3 Xrotation Yrotation Zrotation
											JOINT LeftHandThumb4
											{
												OFFSET 3.941010 -2.275345 2.275342
												CHANNELS 3 Xrotation Yrotation Zrotation
												End Site
												{
													OFFSET -0.005798 5.087799 0.009903
												}
											}
										}
									}
								}
								JOINT LeftHandIndex1
								{
									OFFSET 24.424698 -1.985611 5.953459
									CHANNELS 3 Xrotation Yrotation Zrotation
									JOINT LeftHandIndex2
									{
										OFFSET 6.426697 0.000000 0.000000
										CHANNELS 3 Xrotation Yrotation Zrotation
										JOINT LeftHandIndex3
										{
											OFFSET 5.337898 0.000000 0.000000
											CHANNELS 3 Xrotation Yrotation Zrotation
											JOINT LeftHandIndex4
											{
												OFFSET 4.409401 0.000000 0.000000
												CHANNELS 3 Xrotation Yrotation Zrotation
												End Site
												{
													OFFSET 0.000000 4.409363 0.014373
												}
											}
										}
									}
								}
								JOINT LeftHandMiddle1
								{
									OFFSET 23.810104 0.000000 0.000000
									CHANNELS 3 Xrotation Yrotation Zrotation
									JOINT LeftHandMiddle2
									{
										OFFSET 7.176498 0.000000 0.000000
										CHANNELS 3 Xrotation Yrotation Zrotation
										JOINT LeftHandMiddle3
										{
											OFFSET 6.774902 0.000000 0.000000
											CHANNELS 3 Xrotation Yrotation Zrotation
											JOINT LeftHandMiddle4
											{
												OFFSET 5.403328 0.000000 0.000000
												CHANNELS 3 Xrotation Yrotation Zrotation
												End Site
												{
													OFFSET -0.027702 5.403244 0.017414
												}
											}
										}
									}
								}
								JOINT LeftHandRing1
								{
									OFFSET 22.908401 -0.839279 -6.020567
									CHANNELS 3 Xrotation Yrotation Zrotation
									JOINT LeftHandRing2
									{
										OFFSET 6.337502 0.000000 0.000000
										CHANNELS 3 Xrotation Yrotation Zrotation
										JOINT LeftHandRing3
										{
											OFFSET 5.779297 0.000000 0.000000
											CHANNELS 3 Xrotation Yrotation Zrotation
											JOINT LeftHandRing4
											{
												OFFSET 4.965698 0.000000 0.000000
												CHANNELS 3 Xrotation Yrotation Zrotation
												End Site
												{
													OFFSET 0.000000 4.965668 0.016186
												}
											}
										}
									}
								}
								JOINT LeftHandPinky1
								{
									OFFSET 20.037003 -1.530319 -10.950146
									CHANNELS 3 Xrotation Yrotation Zrotation
									JOINT LeftHandPinky2
									{
										OFFSET 5.254700 0.000000 0.000000
										CHANNELS 3 Xrotation Yrotation Zrotation
										JOINT LeftHandPinky3
										{
											OFFSET 4.810204 0.000000 0.000000
											CHANNELS 3 Xrotation Yrotation Zrotation
											JOINT LeftHandPinky4
											{
												OFFSET 3.647202 0.000000 0.000000
												CHANNELS 3 Xrotation Yrotation Zrotation
												End Site
												{
													OFFSET 0.000000 3.647186 0.011889
												}
											}
										}
									}
								}
							}
						}
					}
				}
				JOINT RightShoulder
				{
					OFFSET -15.141001 14.495407 -7.737500
					CHANNELS 3 Xrotation Yrotation Zrotation
					JOINT RightArm
					{
						OFFSET -9.308998 -2.777710 0.208500
						CHANNELS 3 Xrotation Yrotation Zrotation
						JOINT RightForeArm
						{
							OFFSET -29.972300 0.000000 0.000000
							CHANNELS 3 Xrotation Yrotation Zrotation
							JOINT RightHand
							{
								OFFSET -26.026505 0.000000 0.000000
								CHANNELS 3 Xrotation Yrotation Zrotation
								JOINT RightHandThumb1
								{
									OFFSET -12.240601 -7.148026 9.207092
									CHANNELS 3 Xrotation Yrotation Zrotation
									JOINT RightHandThumb2
									{
										OFFSET -4.138618 -2.389435 2.389433
										CHANNELS 3 Xrotation Yrotation Zrotation
										JOINT RightHandThumb3
										{
											OFFSET -2.726974 -1.574417 1.574421
											CHANNELS 3 Xrotation Yrotation Zrotation
											JOINT RightHandThumb4
											{
												OFFSET -3.941010 -2.275345 2.275343
												CHANNELS 3 Xrotation Yrotation Zrotation
												End Site
												{
													OFFSET 0.005814 5.087799 0.009927
												}
											}
										}
									}
								}
								JOINT RightHandIndex1
								{
									OFFSET -24.424698 -1.985657 5.953444
									CHANNELS 3 Xrotation Yrotation Zrotation
									JOINT RightHandIndex2
									{
										OFFSET -6.426697 0.000000 0.000000
										CHANNELS 3 Xrotation Yrotation Zrotation
										JOINT RightHandIndex3
										{
											OFFSET -5.337898 0.000000 0.000000
											CHANNELS 3 Xrotation Yrotation Zrotation
											JOINT RightHandIndex4
											{
												OFFSET -4.409401 0.000000 0.000000
												CHANNELS 3 Xrotation Yrotation Zrotation
												End Site
												{
													OFFSET 0.000000 4.409363 0.014408
												}
											}
										}
									}
								}
								JOINT RightHandMiddle1
								{
									OFFSET -23.810097 0.000000 0.000000
									CHANNELS 3 Xrotation Yrotation Zrotation
									JOINT RightHandMiddle2
									{
										OFFSET -7.176498 0.000000 0.000000
										CHANNELS 3 Xrotation Yrotation Zrotation
										JOINT RightHandMiddle3
										{
											OFFSET -6.774902 0.000000 0.000000
											CHANNELS 3 Xrotation Yrotation Zrotation
											JOINT RightHandMiddle4
											{
												OFFSET -5.403328 0.000000 0.000000
												CHANNELS 3 Xrotation Yrotation Zrotation
												End Site
												{
													OFFSET 0.027702 5.403244 0.017457
												}
											}
										}
									}
								}
								JOINT RightHandRing1
								{
									OFFSET -22.908302 -0.839325 -6.020576
									CHANNELS 3 Xrotation Yrotation Zrotation
									JOINT RightHandRing2
									{
										OFFSET -6.337502 0.000000 0.000000
										CHANNELS 3 Xrotation Yrotation Zrotation
										JOINT RightHandRing3
										{
											OFFSET -5.779297 0.000000 0.000000
											CHANNELS 3 Xrotation Yrotation Zrotation
											JOINT RightHandRing4
											{
												OFFSET -4.965698 0.000000 0.000000
												CHANNELS 3 Xrotation Yrotation Zrotation
												End Site
												{
													OFFSET 0.000000 4.965668 0.016226
												}
											}
										}
									}
								}
								JOINT RightHandPinky1
								{
									OFFSET -20.037003 -1.530334 -10.950259
									CHANNELS 3 Xrotation Yrotation Zrotation
									JOINT RightHandPinky2
									{
										OFFSET -5.254700 0.000000 0.000000
										CHANNELS 3 Xrotation Yrotation Zrotation
										JOINT RightHandPinky3
										{
											OFFSET -4.810204 0.000000 0.000000
											CHANNELS 3 Xrotation Yrotation Zrotation
											JOINT RightHandPinky4
											{
												OFFSET -3.647202 0.000000 0.000000
												CHANNELS 3 Xrotation Yrotation Zrotation
												End Site
												{
													OFFSET 0.000000 3.647186 0.011917
												}
											}
										}
									}
								}
							}
						}
					}
				}
			}
		}
	}
	JOINT LeftUpLeg
	{
		OFFSET 15.427100 -6.655098 0.678600
		CHANNELS 3 Xrotation Yrotation Zrotation
		JOINT LeftLeg
		{
			OFFSET 4.081073 -39.591068 13.024000
			CHANNELS 3 Xrotation Yrotation Zrotation
			JOINT LeftFoot
			{
				OFFSET -4.081074 -37.707932 -15.979700
				CHANNELS 3 Xrotation Yrotation Zrotation
				JOINT LeftToeBase
				{
					OFFSET 5.346399 -15.068900 20.645000
					CHANNELS 3 Xrotation Yrotation Zrotation
					JOINT LeftToe_End
					{
						OFFSET 2.754700 0.931300 11.300900
						CHANNELS 3 Xrotation Yrotation Zrotation
						End Site
						{
							OFFSET 0.000000 11.669021 0.000000
						}
					}
				}
			}
		}
	}
	JOINT RightUpLeg
	{
		OFFSET -15.569500 -6.655098 0.678600
		CHANNELS 3 Xrotation Yrotation Zrotation
		JOINT RightLeg
		{
			OFFSET -4.081825 -39.591045 13.023800
			CHANNELS 3 Xrotation Yrotation Zrotation
			JOINT RightFoot
			{
				OFFSET 4.081824 -37.707954 -15.979600
				CHANNELS 3 Xrotation Yrotation Zrotation
				JOINT RightToeBase
				{
					OFFSET -5.346400 -15.068900 20.645000
					CHANNELS 3 Xrotation Yrotation Zrotation
					JOINT RightToe_End
					{
						OFFSET -2.754700 0.931300 11.300900
						CHANNELS 3 Xrotation Yrotation Zrotation
						End Site
						{
							OFFSET 0.000000 11.669021 0.000000
						}
					}
				}
			}
		}
	}
}
MOTION
Frames: 4
Frame Time: 0.033333
-2.747059 15.778755 -9.578392 82.070105 -4.204125 -1.936664 5.824268 -1.461018 -0.772156 -4.505679 -5.981536 1.125161 -3.978332 -6.220830 0.289842 -32.792599 -1.702239 16.058678 -6.181631 25.655051 -5.100559 0.000002 -0.000000 0.000000 -32.464149 -38.489441 29.683654 -79.250842 -12.366251 -42.888704 0.000018 -47.566725 0.000015 -117.692875 16.518143 25.032370 1.567994 0.456395 2.719340 19.471730 -1.478278 7.637085 -4.536178 -9.613116 1.492978 0.000001 -0.000005 -0.000000 -1.882824 2.129423 -39.817018 2.947091 5.081732 -60.200502 0.514375 2.402398 -24.167397 -0.000001 0.000001 0.000002 0.405917 5.507047 -52.453162 3.387150 5.308629 -65.057456 0.282023 1.797453 -17.832384 0.000001 -0.000005 -0.000001 -0.074387 5.736776 -61.061427 4.422103 5.674475 -75.840406 0.582667 2.548971 -25.748001 0.000000 0.000001 0.000000 2.216800 7.072471 -64.435431 4.422628 5.674620 -75.845781 1.294122 3.673941 -38.798463 -0.000001 -0.000002 -0.000000 -20.876762 19.499229 15.427036 -54.224674 48.923918 38.187769 0.000054 110.391191 -0.000041 -42.846282 -8.113268 -56.437027 8.377130 -4.904133 11.021986 21.620230 -18.183886 -18.379206 -0.702901 -49.821213 -32.535138 -0.000000 0.000002 0.000001 -1.101409 1.407153 15.159516 1.422371 -3.352174 45.974078 0.615854 -2.316438 29.773116 0.000000 0.000000 -0.000000 3.413054 -7.186249 51.650239 6.296794 -4.359594 110.634673 0.248704 -1.503063 18.790276 -0.000001 -0.000000 -0.000000 -3.349038 -2.600419 57.010558 5.440872 -4.590912 99.698154 1.689419 -3.590700 50.382238 -0.000000 0.000000 -0.000000 -3.996451 -3.303943 64.593850 4.058855 -4.618646 82.610530 2.315536 -4.026789 59.787207 -0.000000 -0.000000 0.000002 -10.201233 33.779507 19.503694 25.818433 -0.036539 -5.875470 -13.860831 16.911227 19.552554 4.604825 9.726017 35.515525 -0.000001 0.000001 -0.000000 -39.166238 -40.639492 -50.609694 29.178964 -10.772048 -4.684106 -7.099841 2.917573 23.130533 -0.029909 -0.511882 5.949012 0.000000 -0.000001 -0.000001 
-2.747917 15.779121 -9.579155 82.086040 -4.192815 -1.935479 5.830273 -1.478093 -0.771943 -4.519670 -5.981151 1.127097 -3.991910 -6.220415 0.293237 -32.778341 -1.686655 16.061157 -6.178327 25.668498 -5.060233 -0.000001 0.000001 -0.000000 -32.397240 -38.477983 29.720288 -79.291270 -12.368045 -42.862856 0.000005 -47.584794 0.000018 -117.703134 16.508074 25.052990 1.534794 0.498026 2.773952 19.470687 -1.477331 7.637689 -4.534885 -9.613047 1.488118 0.000003 0.000001 -0.000000 -1.884958 2.126990 -39.818176 2.949745 5.083242 -60.230609 0.514925 2.403619 -24.180335 0.000001 -0.000001 0.000001 0.396759 5.498543 -52.425698 3.387167 5.308638 -65.057839 0.281871 1.796977 -17.827417 -0.000000 0.000002 0.000004 -0.084326 5.730671 -61.052609 4.421020 5.674204 -75.829518 0.581788 2.547145 -25.728242 -0.000000 0.000000 0.000000 2.202136 7.064024 -64.376971 4.424713 5.675144 -75.866743 1.294318 3.674162 -38.801441 -0.000000 0.000001 0.000001 -20.919556 19.624025 15.480000 -54.153752 48.853150 38.071037 0.000010 110.442991 -0.000002 -42.859471 -8.200784 -56.434100 8.372085 -4.896346 11.021303 21.613051 -18.189267 -18.380903 -0.710924 -49.821538 -32.542829 -0.000002 -0.000001 0.000003 -1.102211 1.410099 15.159777 1.422372 -3.352174 45.974075 0.616556 -2.317674 29.790550 -0.000000 -0.000000 0.000000 3.424003 -7.192304 51.706554 6.295482 -4.360073 110.617475 0.249006 -1.503982 18.802092 0.000000 0.000000 0.000000 -3.356990 -2.595500 57.012682 5.441067 -4.590865 99.700770 1.688700 -3.590112 50.370825 -0.000000 0.000000 -0.000001 -4.000498 -3.298133 64.567185 4.064740 -4.619406 82.683722 2.314492 -4.026191 59.772413 0.000000 -0.000002 0.000003 -10.222059 33.768500 19.503342 25.820869 -0.038917 -5.875548 -13.859221 16.908973 19.556266 4.606043 9.726403 35.517291 -0.000001 0.000001 -0.000000 -39.161112 -40.639619 -50.602778 29.175935 -10.771980 -4.681111 -7.101793 2.906493 23.156115 -0.052119 -0.516039 5.972870 0.000001 0.000001 -0.000002 
-2.747923 15.781944 -9.580017 82.101900 -4.182396 -1.939047 5.840474 -1.495567 -0.771719 -4.533004 -5.980786 1.128956 -4.004834 -6.220018 0.296495 -32.768003 -1.672343 16.065937 -6.176986 25.681320 -5.015178 -0.000002 0.000000 -0.000001 -32.333754 -38.478479 29.754073 -79.329703 -12.378924 -42.833807 -0.000029 -47.597188 -0.000030 -117.708721 16.497784 25.074700 1.571151 0.529758 2.768331 19.460710 -1.468231 7.643382 -4.531324 -9.612875 1.474864 -0.000001 -0.000000 0.000000 -1.893150 2.105937 -39.740503 2.924351 5.068680 -59.943379 0.515292 2.404433 -24.189192 -0.000003 0.000000 0.000002 0.390661 5.491657 -52.385328 3.387120 5.308595 -65.057176 0.281206 1.794911 -17.806377 0.000003 0.000000 0.000003 -0.088659 5.726957 -61.034208 4.419489 5.673818 -75.813980 0.581041 2.545607 -25.711484 -0.000001 -0.000006 -0.000001 2.222759 7.074386 -64.399607 4.425325 5.675292 -75.873074 1.294406 3.674276 -38.802885 -0.000000 -0.000001 0.000000 -20.958282 19.736477 15.528882 -54.093322 48.778762 37.964476 0.000041 110.495925 -0.000046 -42.873692 -8.278775 -56.428677 8.368953 -4.891532 11.020893 21.637768 -18.163833 -18.342770 -0.731416 -49.822350 -32.562387 -0.000003 0.000000 0.000001 -1.103460 1.414724 15.160209 1.422371 -3.352174 45.974075 0.618866 -2.321675 29.847370 0.000000 0.000000 -0.000000 3.429303 -7.195589 51.725849 6.296729 -4.359616 110.633703 0.248754 -1.503197 18.792029 -0.000000 -0.000000 -0.000001 -3.354757 -2.594056 56.991676 5.441288 -4.590842 99.703468 1.688338 -3.589801 50.364982 -0.000000 -0.000001 0.000002 -4.019149 -3.282548 64.521368 4.069946 -4.620099 82.748329 2.314664 -4.026260 59.774544 -0.000000 0.000000 0.000001 -10.249665 33.755584 19.507778 25.825750 -0.048466 -5.873989 -13.853285 16.906556 19.563730 4.602185 9.729537 35.529131 -0.000002 -0.000000 -0.000002 -39.159325 -40.648699 -50.603741 29.171017 -10.770334 -4.657136 -7.103608 2.903517 23.157019 -0.058976 -0.518505 5.987782 -0.000000 0.000001 -0.000001 
-2.747469 15.780144 -9.580627 82.118237 -4.174770 -1.944080 5.844895 -1.512704 -0.770933 -4.547199 -5.980408 1.130902 -4.018569 -6.219610 0.299928 -32.751061 -1.655169 16.068257 -6.176333 25.693690 -4.966282 -0.000002 0.000000 -0.000000 -32.264468 -38.483297 29.788682 -79.371750 -12.389623 -42.803016 0.000013 -47.604311 0.000017 -117.708161 16.490402 25.098029 1.646774 0.581974 2.746775 19.437200 -1.446726 7.656750 -4.530464 -9.612841 1.471678 0.000002 -0.000001 -0.000001 -1.873986 2.136687 -39.792508 2.915649 5.063680 -59.845086 0.515014 2.403795 -24.182317 -0.000003 -0.000001 0.000002 0.376359 5.479028 -52.355446 3.387786 5.308926 -65.064409 0.280684 1.793286 -17.789694 0.000004 0.000001 -0.000001 -0.092275 5.724035 -61.021696 4.419834 5.673908 -75.817497 0.580939 2.545389 -25.709156 -0.000001 -0.000001 0.000001 2.267362 7.097250 -64.468721 4.426149 5.675515 -75.881428 1.293867 3.673608 -38.794464 -0.000000 -0.000002 -0.000000 -21.002982 19.865887 15.584053 -54.035884 48.683543 37.871937 -0.000000 110.553565 -0.000003 -42.876837 -8.376338 -56.408217 8.341496 -4.849276 11.017116 21.666644 -18.135184 -18.302252 -0.746139 -49.822931 -32.576437 -0.000001 0.000004 0.000001 -1.104553 1.418725 15.160553 1.422371 -3.352174 45.974078 0.619174 -2.322210 29.854907 -0.000000 -0.000000 0.000000 3.417307 -7.188057 51.684438 6.297191 -4.359455 110.639707 0.248803 -1.503258 18.792933 0.000000 0.000000 0.000000 -3.332249 -2.602848 56.948174 5.441840 -4.590716 99.710517 1.688063 -3.589596 50.360884 -0.000001 0.000001 -0.000001 -4.041236 -3.258778 64.430834 4.065026 -4.619459 82.687049 2.314858 -4.026392 59.777344 0.000000 -0.000000 0.000003 -10.273914 33.748173 19.516917 25.830140 -0.048847 -5.874632 -13.856088 16.904735 19.564653 4.605928 9.728624 35.526396 -0.000003 -0.000000 -0.000000 -39.177473 -40.674238 -50.632302 29.165816 -10.761895 -4.608173 -7.110241 2.911275 23.127813 -0.047235 -0.518486 5.989711 -0.000000 -0.000001 -0.000001 
